<svg xmlns="http://www.w3.org/2000/svg" width="18" height="13" viewBox="0 0 18 13">
    <g fill="#FFF" fill-rule="evenodd">
        <g>
            <path d="M1.958 1.942v.005c.005.719.17 1.519.497 2.157.322.64.831 1.138 1.498 1.138.668 0 1.177-.498 1.499-1.138.327-.64.49-1.438.503-2.157v-.005C5.955.872 5.055 0 3.953 0c-1.1 0-1.995.873-1.995 1.942zM8.862 1.106c-.932 0-1.7.744-1.7 1.654.007.608.15 1.278.421 1.819.278.541.705.972 1.279.972.573 0 1.006-.43 1.278-.972.271-.541.416-1.21.422-1.819 0-.91-.763-1.654-1.7-1.654zM8.862 6.08c1.794 0 3.272 1.634 3.272 3.692 0 .203-.018.395-.044.584-.87.565-1.989.915-3.228.915-.05 0-.108-.005-.158-.005l.019-.019.013-.067c.044-.277.062-.565.062-.854 0-1.5-.617-2.852-1.598-3.738.49-.325 1.058-.509 1.662-.509zM3.953 5.87c2.172 0 3.952 1.98 3.952 4.456 0 .246-.025.486-.057.719-1.038.676-2.396 1.1-3.895 1.1-1.498 0-2.858-.424-3.896-1.106-.031-.233-.057-.467-.057-.713C0 7.85 1.782 5.87 3.953 5.87z" transform="translate(.898 .522) translate(4.32)"/>
        </g>
        <path fill-rule="nonzero" d="M2.809 6.641V4.97H4.48c.21 0 .379-.17.379-.379 0-.21-.17-.379-.379-.379H2.81V2.54c0-.21-.17-.379-.379-.379-.21 0-.379.17-.379.379V4.21H.38c-.21 0-.379.17-.379.379 0 .21.17.379.379.379H2.05V6.64c0 .21.17.379.379.379.21 0 .379-.17.379-.379z" transform="translate(.898 .522)"/>
    </g>
</svg>
