<svg xmlns="http://www.w3.org/2000/svg" width="20" height="17" viewBox="0 0 26 22">
    <path fill="#FFF" fill-rule="evenodd" d="M23.486 14.697c-.377.377-.876.574-1.48.574-.377.015-.769.015-1.161.015-.196-.015-.378-.015-.589-.015h-1.72c-.633 0-1.16-.197-1.538-.574-.377-.377-.574-.905-.574-1.539v-.543c0-.483-.016-.981.015-1.494-.649-.256-1.343-.407-2.263-.513-1.81-.181-3.44-.12-4.963.227-.151.03-.301.09-.483.15-.137.046-.272.092-.408.136v2.022c0 .603-.196 1.131-.573 1.508-.378.378-.876.574-1.494.56l-3.47.057c-1.237 0-2.067-.83-2.098-2.097v-.814c.014-.407.015-.77-.016-1.132v-.03c-.045-.981.303-1.84 1.012-2.55l.196-.196c1.147-.996 2.489-1.554 3.561-1.931 2.791-.98 5.733-1.328 8.736-1.071 2.49.226 4.526.724 6.397 1.599 1.222.559 2.083 1.147 2.716 1.902.513.603.77 1.313.77 2.097l.015 2.158c-.015.618-.211 1.117-.588 1.494z"/>
</svg>
