<svg xmlns="http://www.w3.org/2000/svg" width="24" height="24" viewBox="0 0 20 20">
    <g fill="none" fill-rule="evenodd">
        <path stroke="#8798A4" stroke-width="1.5" d="M16.54 3.46A9.25 9.25 0 1 0 3.46 16.54 9.25 9.25 0 0 0 16.54 3.46z"/>
        <path fill="#8798A4" d="M13.536 6.464a1 1 0 0 1 0 1.415L11.414 10l2.122 2.121a1 1 0 0 1-1.415 1.415L10 11.414l-2.121 2.122a1 1 0 0 1-1.415-1.415L8.586 10 6.464 7.879A1 1 0 0 1 7.88 6.464L10 8.586l2.121-2.122a1 1 0 0 1 1.415 0z"/>
    </g>
</svg>
