<svg xmlns="http://www.w3.org/2000/svg" width="30" height="30" viewBox="0 0 30 30">
    <path fill="#FFF" fill-rule="evenodd" d="M15.02 14.962c4.967 0 8.98 3.715 8.98 8.272a.767.767 0 0 1-.764.766.767.767 0 0 1-.765-.766c0-3.753-3.363-6.779-7.49-6.779-4.127 0-7.452 3.064-7.452 6.779a.767.767 0 0 1-.765.766.767.767 0 0 1-.764-.766c.038-4.557 4.051-8.272 9.02-8.272zm2.063 2.642c.42 0 .764.345.764.766v1.608h1.643c.42 0 .765.345.765.767 0 .421-.382.766-.803.766l-1.605-.001v1.57c-.038.422-.382.767-.764.767a.767.767 0 0 1-.765-.766V21.51h-1.643a.767.767 0 0 1-.764-.765c0-.422.344-.766.764-.766l1.643-.001V18.37c0-.421.344-.766.765-.766zM15.019 6c2.408 0 4.357 1.877 4.357 4.213 0 2.336-1.95 4.213-4.357 4.213-2.408 0-4.357-1.877-4.357-4.213C10.662 7.877 12.612 6 15.02 6zm0 1.494c-1.567 0-2.866 1.225-2.866 2.719 0 1.493 1.3 2.719 2.866 2.719 1.567 0 2.866-1.226 2.866-2.72 0-1.493-1.299-2.718-2.866-2.718z"/>
</svg>
