<svg xmlns="http://www.w3.org/2000/svg" width="16" height="14" viewBox="0 0 16 14">
    <path fill="#FFF" stroke="#FFF" d="M14.158.75c.343 0 .656.12.882.32.203.178.335.423.335.698h0v10.464c0 .275-.132.52-.335.698-.226.2-.539.32-.882.32h0H1.842c-.343 0-.656-.12-.882-.32-.203-.178-.335-.423-.335-.698h0V1.768c0-.275.132-.52.335-.698.226-.2.539-.32.882-.32h0zm-.55.5H2.392c-.339 0-.644.122-.866.311-.254.216-.401.518-.401.843v9.192c0 .326.147.627.4.843.223.189.528.311.867.311h11.216c.339 0 .644-.122.866-.311.254-.216.401-.518.401-.843V2.405c0-.326-.147-.627-.4-.843-.223-.19-.528-.311-.867-.311z"/>
</svg>
