<svg xmlns="http://www.w3.org/2000/svg" width="22" height="18" viewBox="0 0 22 18">
    <g fill="none" fill-rule="evenodd">
        <path fill="#FFF" fill-opacity="0" d="M0 0H21V18H0z" transform="translate(.5)"/>
        <path fill="#FFF" fill-rule="nonzero" d="M13.368 8.147V2.842C13.368 1.27 12.098 0 10.526 0 9.067 0 7.883 1.099 7.722 2.51l5.646 5.637zm2.918.38c-.388 0-.73.284-.786.672-.047.303-.114.606-.208.881l1.203 1.203c.284-.568.492-1.184.597-1.838.066-.483-.313-.919-.806-.919zM2.673 1.476c-.37.37-.37.967 0 1.337l5.011 5.02v.408c0 1.127.569 2.198 1.544 2.757.71.407 1.336.417 1.914.294l1.573 1.572c-.673.313-1.421.493-2.189.493-2.406 0-4.623-1.677-4.973-4.16-.057-.387-.398-.672-.787-.672-.492 0-.871.436-.805.92.436 2.803 2.804 5.02 5.618 5.447v2.16c0 .52.426.947.947.947.521 0 .948-.426.948-.947v-2.16c.862-.124 1.677-.427 2.415-.853l3.307 3.306c.37.37.966.37 1.336 0 .37-.37.37-.966 0-1.335L4.008 1.478c-.37-.37-.966-.37-1.335 0z" transform="translate(.5)"/>
    </g>
</svg>
