<svg xmlns="http://www.w3.org/2000/svg" width="38" height="32" viewBox="0 0 38 32">
    <path fill="#FFF" d="M35.829 20.655v-9.196c0-1.547-1.88-2.33-2.975-1.235l-3.984 3.999V8.138c0-.956-.783-1.738-1.74-1.738h-9.759l15.5 15.489c1.079 1.095 2.958.313 2.958-1.234zM3.777.51c-.693.68-.693 1.781 0 2.462L7.37 6.518H6.07c-.978 0-1.778.786-1.778 1.746v17.463c0 .96.8 1.746 1.778 1.746h21.341c.374 0 .694-.14.978-.314l4.41 4.33c.694.681 1.815.681 2.508 0 .694-.68.694-1.781 0-2.462L6.285.511C5.59-.17 4.47-.17 3.777.51z"/>
</svg>
