<svg xmlns="http://www.w3.org/2000/svg" width="22" height="18" viewBox="0 0 22 18">
    <g fill="none" fill-rule="evenodd">
        <path fill="#FFF" fill-rule="nonzero" d="M19.604 11.304V6.293c0-.843-1.023-1.27-1.62-.673L15.815 7.8V4.482c0-.52-.426-.947-.947-.947H9.553l8.44 8.441c.588.597 1.611.17 1.611-.673zM2.277.277c-.37.37-.37.966 0 1.336l1.914 1.923h-.692c-.52 0-.947.426-.947.947v9.474c0 .521.426.947.947.947h11.369c.199 0 .37-.075.52-.17l2.35 2.35c.37.369.966.369 1.336 0 .37-.37.37-.967 0-1.336L3.613.278c-.37-.37-.966-.37-1.336 0z" transform="translate(.5)"/>
        <path fill="#FFF" fill-opacity="0" d="M0 0H21V18H0z" transform="translate(.5)"/>
    </g>
</svg>
